<mxfile host="app.diagrams.net" modified="2024-01-17T12:12:10.082Z" agent="Mozilla/5.0 (Macintosh; Intel Mac OS X 10_15_7) AppleWebKit/537.36 (KHTML, like Gecko) Chrome/120.0.0.0 Safari/537.36" etag="18ycMJoI1gosmiEZffhJ" version="22.1.18" type="device">
  <diagram id="yeePxlLNk2Ugn8B2trMV" name="Seite-1">
    <mxGraphModel dx="1194" dy="765" grid="1" gridSize="10" guides="1" tooltips="1" connect="1" arrows="1" fold="1" page="1" pageScale="1" pageWidth="827" pageHeight="1169" math="0" shadow="0">
      <root>
        <mxCell id="0" />
        <mxCell id="1" parent="0" />
        <mxCell id="-rPwItrO0R2NEmneRmhp-1" value="" style="rounded=0;whiteSpace=wrap;html=1;strokeColor=#000000;dashed=1;" parent="1" vertex="1">
          <mxGeometry x="70" y="80" width="730" height="600" as="geometry" />
        </mxCell>
        <mxCell id="-rPwItrO0R2NEmneRmhp-2" value="ECR" style="text;html=1;strokeColor=none;fillColor=none;align=center;verticalAlign=middle;whiteSpace=wrap;rounded=0;" parent="1" vertex="1">
          <mxGeometry x="384" y="50" width="60" height="30" as="geometry" />
        </mxCell>
        <mxCell id="-rPwItrO0R2NEmneRmhp-3" value="&lt;b&gt;N3000-IMC&lt;/b&gt;" style="rounded=0;whiteSpace=wrap;html=1;strokeColor=#000000;" parent="1" vertex="1">
          <mxGeometry x="120" y="150" width="120" height="60" as="geometry" />
        </mxCell>
        <mxCell id="-rPwItrO0R2NEmneRmhp-4" value="&lt;b&gt;Epson LQ350 (Printer)&lt;/b&gt;" style="rounded=0;whiteSpace=wrap;html=1;strokeColor=#000000;" parent="1" vertex="1">
          <mxGeometry x="660" y="160" width="120" height="60" as="geometry" />
        </mxCell>
        <mxCell id="-rPwItrO0R2NEmneRmhp-6" value="" style="endArrow=none;html=1;rounded=0;exitX=0.5;exitY=1;exitDx=0;exitDy=0;entryX=0;entryY=0.5;entryDx=0;entryDy=0;edgeStyle=orthogonalEdgeStyle;" parent="1" source="-rPwItrO0R2NEmneRmhp-3" target="-rPwItrO0R2NEmneRmhp-8" edge="1">
          <mxGeometry width="50" height="50" relative="1" as="geometry">
            <mxPoint x="270" y="210" as="sourcePoint" />
            <mxPoint x="394" y="180" as="targetPoint" />
            <Array as="points">
              <mxPoint x="180" y="370" />
            </Array>
          </mxGeometry>
        </mxCell>
        <mxCell id="-rPwItrO0R2NEmneRmhp-7" value="KM42-3-6000" style="edgeLabel;html=1;align=center;verticalAlign=middle;resizable=0;points=[];" parent="-rPwItrO0R2NEmneRmhp-6" vertex="1" connectable="0">
          <mxGeometry y="1" relative="1" as="geometry">
            <mxPoint y="-9" as="offset" />
          </mxGeometry>
        </mxCell>
        <mxCell id="-rPwItrO0R2NEmneRmhp-8" value="DB25-F &amp;lt;-&amp;gt; DB9-M" style="shape=process;whiteSpace=wrap;html=1;backgroundOutline=1;strokeColor=#000000;" parent="1" vertex="1">
          <mxGeometry x="210" y="350" width="140" height="60" as="geometry" />
        </mxCell>
        <mxCell id="-rPwItrO0R2NEmneRmhp-10" value="RS232 Monitor Cable&lt;br&gt;Halfduplex" style="rounded=0;whiteSpace=wrap;html=1;strokeColor=#000000;" parent="1" vertex="1">
          <mxGeometry x="375" y="350" width="120" height="60" as="geometry" />
        </mxCell>
        <mxCell id="-rPwItrO0R2NEmneRmhp-11" value="" style="endArrow=none;html=1;rounded=0;entryX=0;entryY=0.5;entryDx=0;entryDy=0;exitX=1;exitY=0.5;exitDx=0;exitDy=0;" parent="1" source="-rPwItrO0R2NEmneRmhp-8" target="-rPwItrO0R2NEmneRmhp-10" edge="1">
          <mxGeometry width="50" height="50" relative="1" as="geometry">
            <mxPoint x="310" y="480" as="sourcePoint" />
            <mxPoint x="360" y="430" as="targetPoint" />
          </mxGeometry>
        </mxCell>
        <mxCell id="-rPwItrO0R2NEmneRmhp-12" value="DB9-F &amp;lt;-&amp;gt; DB25-M" style="shape=process;whiteSpace=wrap;html=1;backgroundOutline=1;strokeColor=#000000;" parent="1" vertex="1">
          <mxGeometry x="530" y="350" width="140" height="60" as="geometry" />
        </mxCell>
        <mxCell id="-rPwItrO0R2NEmneRmhp-13" value="" style="endArrow=none;html=1;rounded=0;entryX=0;entryY=0.5;entryDx=0;entryDy=0;exitX=1;exitY=0.5;exitDx=0;exitDy=0;" parent="1" source="-rPwItrO0R2NEmneRmhp-10" target="-rPwItrO0R2NEmneRmhp-12" edge="1">
          <mxGeometry width="50" height="50" relative="1" as="geometry">
            <mxPoint x="330" y="510" as="sourcePoint" />
            <mxPoint x="380" y="460" as="targetPoint" />
          </mxGeometry>
        </mxCell>
        <mxCell id="-rPwItrO0R2NEmneRmhp-16" value="&lt;b&gt;Norimos Bridge&lt;/b&gt; (ThinkCentre M70Q)&lt;br&gt;MAC1: E88088900DB2&lt;br&gt;MAC2:&amp;nbsp;A4F933D1610E&amp;nbsp;&lt;br&gt;S/N GM0616PA" style="rounded=0;whiteSpace=wrap;html=1;strokeColor=#000000;" parent="1" vertex="1">
          <mxGeometry x="347.5" y="470" width="172.5" height="80" as="geometry" />
        </mxCell>
        <mxCell id="-rPwItrO0R2NEmneRmhp-17" value="" style="endArrow=none;html=1;rounded=0;entryX=0.5;entryY=1;entryDx=0;entryDy=0;exitX=0.5;exitY=0;exitDx=0;exitDy=0;" parent="1" source="-rPwItrO0R2NEmneRmhp-16" target="-rPwItrO0R2NEmneRmhp-10" edge="1">
          <mxGeometry width="50" height="50" relative="1" as="geometry">
            <mxPoint x="330" y="520" as="sourcePoint" />
            <mxPoint x="380" y="470" as="targetPoint" />
          </mxGeometry>
        </mxCell>
        <mxCell id="-rPwItrO0R2NEmneRmhp-18" value="Serial Port 1 (DB9-M)" style="edgeLabel;html=1;align=center;verticalAlign=middle;resizable=0;points=[];" parent="-rPwItrO0R2NEmneRmhp-17" vertex="1" connectable="0">
          <mxGeometry x="0.0125" y="2" relative="1" as="geometry">
            <mxPoint y="1" as="offset" />
          </mxGeometry>
        </mxCell>
        <mxCell id="-rPwItrO0R2NEmneRmhp-21" value="LM Work" style="rounded=0;whiteSpace=wrap;html=1;strokeColor=#000000;" parent="1" vertex="1">
          <mxGeometry x="375" y="585" width="120" height="60" as="geometry" />
        </mxCell>
        <mxCell id="-rPwItrO0R2NEmneRmhp-22" value="" style="endArrow=none;html=1;rounded=0;entryX=0.5;entryY=1;entryDx=0;entryDy=0;exitX=0.5;exitY=0;exitDx=0;exitDy=0;" parent="1" source="-rPwItrO0R2NEmneRmhp-21" target="-rPwItrO0R2NEmneRmhp-16" edge="1">
          <mxGeometry width="50" height="50" relative="1" as="geometry">
            <mxPoint x="420" y="610" as="sourcePoint" />
            <mxPoint x="470" y="560" as="targetPoint" />
          </mxGeometry>
        </mxCell>
        <mxCell id="-rPwItrO0R2NEmneRmhp-23" value="WIFI" style="edgeLabel;html=1;align=center;verticalAlign=middle;resizable=0;points=[];" parent="-rPwItrO0R2NEmneRmhp-22" vertex="1" connectable="0">
          <mxGeometry x="-0.1143" y="1" relative="1" as="geometry">
            <mxPoint as="offset" />
          </mxGeometry>
        </mxCell>
        <mxCell id="-rPwItrO0R2NEmneRmhp-24" value="UPS 230V" style="rounded=0;whiteSpace=wrap;html=1;strokeColor=#000000;" parent="1" vertex="1">
          <mxGeometry x="550" y="585" width="120" height="60" as="geometry" />
        </mxCell>
        <mxCell id="-rPwItrO0R2NEmneRmhp-25" value="" style="endArrow=none;html=1;rounded=0;exitX=1;exitY=0.5;exitDx=0;exitDy=0;entryX=0.5;entryY=0;entryDx=0;entryDy=0;edgeStyle=orthogonalEdgeStyle;" parent="1" source="-rPwItrO0R2NEmneRmhp-16" target="-rPwItrO0R2NEmneRmhp-24" edge="1">
          <mxGeometry width="50" height="50" relative="1" as="geometry">
            <mxPoint x="540" y="540" as="sourcePoint" />
            <mxPoint x="590" y="490" as="targetPoint" />
          </mxGeometry>
        </mxCell>
        <mxCell id="-rPwItrO0R2NEmneRmhp-26" value="" style="endArrow=none;html=1;rounded=0;exitX=1;exitY=0.5;exitDx=0;exitDy=0;entryX=0.5;entryY=1;entryDx=0;entryDy=0;edgeStyle=orthogonalEdgeStyle;" parent="1" source="-rPwItrO0R2NEmneRmhp-12" target="-rPwItrO0R2NEmneRmhp-4" edge="1">
          <mxGeometry width="50" height="50" relative="1" as="geometry">
            <mxPoint x="730" y="390" as="sourcePoint" />
            <mxPoint x="780" y="340" as="targetPoint" />
          </mxGeometry>
        </mxCell>
        <mxCell id="-rPwItrO0R2NEmneRmhp-27" value="&lt;h1&gt;RS232 / UART Settings&lt;/h1&gt;&lt;p&gt;Baudrate: 4800 BPS&lt;br&gt;Data Length: 7 Bit&lt;br&gt;Stop Bit: 1 Bit&lt;br&gt;&lt;span style=&quot;background-color: initial;&quot;&gt;Parity: Even&lt;/span&gt;&lt;span style=&quot;background-color: initial;&quot;&gt;&lt;br&gt;Flow Control: None&lt;/span&gt;&lt;/p&gt;" style="text;html=1;strokeColor=none;fillColor=none;spacing=5;spacingTop=-20;whiteSpace=wrap;overflow=hidden;rounded=0;" parent="1" vertex="1">
          <mxGeometry x="360" y="140" width="280" height="140" as="geometry" />
        </mxCell>
      </root>
    </mxGraphModel>
  </diagram>
</mxfile>
